<svg xmlns="http://www.w3.org/2000/svg" xmlns:xlink="http://www.w3.org/1999/xlink" width="500" zoomAndPan="magnify" viewBox="0 0 375 374.999991" height="500" preserveAspectRatio="xMidYMid meet" version="1.0"><defs><clipPath id="fb529a1e63"><path d="M 41.707031 5.808594 L 343.96875 5.808594 L 343.96875 346.09375 L 41.707031 346.09375 Z M 41.707031 5.808594 " clip-rule="nonzero"/></clipPath></defs><rect x="-37.5" width="450" fill="#ffffff" y="-37.499999" height="449.999989" fill-opacity="1"/><rect x="-37.5" width="450" fill="#ffffff" y="-37.499999" height="449.999989" fill-opacity="1"/><rect x="-37.5" width="450" fill="#ffffff" y="-37.499999" height="449.999989" fill-opacity="1"/><g clip-path="url(#fb529a1e63)"><path fill="#4f0a84" d="M 326.5625 80.292969 L 302.234375 66.277344 L 283.507812 88.8125 L 312.097656 105.28125 C 312.546875 105.539062 312.953125 105.851562 313.316406 106.21875 C 313.683594 106.582031 313.996094 106.988281 314.253906 107.4375 C 314.511719 107.882812 314.707031 108.355469 314.84375 108.855469 C 314.976562 109.351562 315.046875 109.859375 315.046875 110.375 L 315.046875 244.367188 C 315.046875 244.882812 314.976562 245.390625 314.84375 245.886719 C 314.710938 246.386719 314.511719 246.859375 314.253906 247.304688 C 313.996094 247.753906 313.683594 248.160156 313.316406 248.523438 C 312.953125 248.890625 312.546875 249.203125 312.097656 249.460938 L 271.050781 273.105469 L 194.578125 174.992188 L 248.507812 110.015625 L 248.449219 109.964844 L 290.550781 59.300781 L 188.128906 5.816406 L 188.128906 40.339844 L 191.863281 40.222656 L 245.6875 67.378906 L 175.304688 149.800781 L 174.886719 73.355469 L 174.671875 73.355469 L 174.671875 13.730469 L 59.113281 80.292969 C 57.800781 81.050781 56.539062 81.894531 55.332031 82.820312 C 54.128906 83.746094 52.988281 84.746094 51.914062 85.820312 C 50.839844 86.894531 49.839844 88.03125 48.914062 89.238281 C 47.988281 90.441406 47.144531 91.699219 46.382812 93.015625 C 45.625 94.328125 44.953125 95.6875 44.371094 97.089844 C 43.785156 98.488281 43.296875 99.921875 42.902344 101.386719 C 42.507812 102.855469 42.210938 104.339844 42.011719 105.84375 C 41.808594 107.347656 41.707031 108.859375 41.707031 110.375 L 41.707031 244.367188 C 41.707031 245.882812 41.808594 247.394531 42.011719 248.898438 C 42.210938 250.402344 42.507812 251.886719 42.902344 253.351562 C 43.296875 254.820312 43.785156 256.253906 44.371094 257.652344 C 44.953125 259.054688 45.625 260.414062 46.382812 261.726562 C 47.144531 263.042969 47.988281 264.300781 48.914062 265.503906 C 49.839844 266.710938 50.839844 267.847656 51.914062 268.921875 C 52.988281 269.996094 54.128906 270.996094 55.332031 271.921875 C 56.539062 272.847656 57.800781 273.6875 59.113281 274.449219 L 130.953125 315.828125 L 130.953125 282.507812 L 73.578125 249.457031 C 73.128906 249.199219 72.722656 248.886719 72.359375 248.523438 C 71.992188 248.15625 71.679688 247.75 71.421875 247.304688 C 71.164062 246.855469 70.964844 246.382812 70.832031 245.886719 C 70.699219 245.386719 70.628906 244.878906 70.628906 244.363281 L 70.628906 110.371094 C 70.632812 109.855469 70.699219 109.347656 70.832031 108.851562 C 70.96875 108.351562 71.164062 107.878906 71.421875 107.433594 C 71.679688 106.984375 71.992188 106.578125 72.359375 106.214844 C 72.722656 105.847656 73.128906 105.535156 73.578125 105.277344 L 143.988281 64.722656 L 144.613281 290.375 L 144.40625 290.253906 L 144.40625 323.574219 L 175.429688 341.441406 C 176.746094 342.199219 178.109375 342.867188 179.515625 343.445312 C 180.921875 344.023438 182.359375 344.507812 183.828125 344.902344 C 185.296875 345.292969 186.785156 345.585938 188.296875 345.785156 C 189.804688 345.980469 191.316406 346.082031 192.839844 346.082031 C 194.359375 346.082031 195.875 345.980469 197.382812 345.785156 C 198.890625 345.585938 200.378906 345.292969 201.847656 344.902344 C 203.320312 344.507812 204.757812 344.023438 206.164062 343.445312 C 207.566406 342.867188 208.929688 342.199219 210.25 341.441406 L 250.996094 317.96875 L 232.753906 295.15625 L 195.785156 316.453125 C 194.875 316.976562 193.890625 317.238281 192.839844 317.238281 C 191.785156 317.238281 190.800781 316.976562 189.890625 316.453125 L 175.363281 308.089844 L 175.363281 201.53125 L 229.273438 269.585938 L 229.414062 269.476562 L 262.777344 311.1875 L 326.558594 274.449219 C 327.875 273.6875 329.136719 272.847656 330.339844 271.921875 C 331.546875 270.996094 332.6875 269.996094 333.761719 268.921875 C 334.835938 267.847656 335.835938 266.707031 336.761719 265.503906 C 337.6875 264.300781 338.53125 263.042969 339.292969 261.726562 C 340.050781 260.414062 340.722656 259.054688 341.304688 257.652344 C 341.890625 256.25 342.378906 254.816406 342.773438 253.351562 C 343.167969 251.886719 343.464844 250.402344 343.664062 248.898438 C 343.867188 247.394531 343.96875 245.882812 343.96875 244.363281 L 343.96875 110.375 C 343.96875 108.855469 343.867188 107.34375 343.664062 105.839844 C 343.464844 104.335938 343.167969 102.851562 342.773438 101.386719 C 342.378906 99.921875 341.886719 98.488281 341.304688 97.085938 C 340.722656 95.6875 340.050781 94.328125 339.292969 93.015625 C 338.53125 91.699219 337.6875 90.441406 336.761719 89.238281 C 335.835938 88.03125 334.835938 86.894531 333.761719 85.820312 C 332.6875 84.746094 331.546875 83.746094 330.34375 82.820312 C 329.136719 81.894531 327.875 81.050781 326.5625 80.292969 Z M 326.5625 80.292969 " fill-opacity="1" fill-rule="nonzero"/></g><path stroke-linecap="butt" transform="matrix(0.000000000000000117, 1.914263, -1.901034, 0.000000000000000116, 137.561451, 5.820505)" fill="none" stroke-linejoin="miter" d="M -0.000100591 -0.00055198 L 51.653667 -0.00055198 " stroke="#ffffff" stroke-width="7" stroke-opacity="1" stroke-miterlimit="4"/><path stroke-linecap="butt" transform="matrix(-1.275155, 1.42772, -1.417853, -1.266342, 293.912359, 4.440963)" fill="none" stroke-linejoin="miter" d="M -0.000420096 -0.00082379 L 51.653175 -0.0002174 " stroke="#ffffff" stroke-width="7" stroke-opacity="1" stroke-miterlimit="4"/><path stroke-linecap="butt" transform="matrix(-1.131306, -1.544199, 1.533527, -1.123487, 312.243411, 318.303113)" fill="none" stroke-linejoin="miter" d="M -0.000285503 -0.00100858 L 51.653487 0.000704915 " stroke="#ffffff" stroke-width="7" stroke-opacity="1" stroke-miterlimit="4"/><path stroke-linecap="butt" transform="matrix(1.88115, 0, 0, 1.901034, 10.500004, 175.347044)" fill="none" stroke-linejoin="miter" d="M -0.00000202562 0.000322227 L 34.366442 0.000322227 " stroke="#ffffff" stroke-width="7" stroke-opacity="1" stroke-miterlimit="4"/><path stroke-linecap="butt" transform="matrix(1.88115, 0, 0, 1.901034, 296.76766, 176.36624)" fill="none" stroke-linejoin="miter" d="M 0.000994624 0.000498614 L 34.367439 0.000498614 " stroke="#ffffff" stroke-width="7" stroke-opacity="1" stroke-miterlimit="4"/><path stroke-linecap="butt" transform="matrix(0.000000000000000117, 1.914263, -1.901034, 0.000000000000000116, 182.373509, 276.817686)" fill="none" stroke-linejoin="miter" d="M -0.000668441 -0.00078456 L 51.6531 -0.00078456 " stroke="#ffffff" stroke-width="7" stroke-opacity="1" stroke-miterlimit="4"/></svg>