<svg xmlns="http://www.w3.org/2000/svg" xmlns:xlink="http://www.w3.org/1999/xlink" width="500" zoomAndPan="magnify" viewBox="0 0 375 374.999991" height="500" preserveAspectRatio="xMidYMid meet" version="1.0"><defs><clipPath id="22b4fb6a20"><path d="M 42.90625 5.808594 L 345.171875 5.808594 L 345.171875 346.09375 L 42.90625 346.09375 Z M 42.90625 5.808594 " clip-rule="nonzero"/></clipPath></defs><rect x="-37.5" width="450" fill="#ffffff" y="-37.499999" height="449.999989" fill-opacity="1"/><rect x="-37.5" width="450" fill="#4f0a84" y="-37.499999" height="449.999989" fill-opacity="1"/><g clip-path="url(#22b4fb6a20)"><path fill="#ffffff" d="M 327.761719 80.292969 L 303.433594 66.277344 L 284.707031 88.8125 L 313.296875 105.28125 C 313.746094 105.539062 314.152344 105.851562 314.519531 106.21875 C 314.882812 106.582031 315.195312 106.988281 315.453125 107.4375 C 315.710938 107.882812 315.910156 108.355469 316.042969 108.855469 C 316.175781 109.351562 316.246094 109.859375 316.246094 110.375 L 316.246094 244.367188 C 316.246094 244.882812 316.175781 245.390625 316.042969 245.886719 C 315.910156 246.386719 315.714844 246.859375 315.453125 247.304688 C 315.195312 247.753906 314.882812 248.160156 314.519531 248.523438 C 314.152344 248.890625 313.746094 249.203125 313.296875 249.460938 L 272.25 273.105469 L 195.777344 174.992188 L 249.707031 110.015625 L 249.648438 109.964844 L 291.753906 59.300781 L 189.328125 5.816406 L 189.328125 40.339844 L 193.0625 40.222656 L 246.890625 67.378906 L 176.507812 149.800781 L 176.085938 73.355469 L 175.871094 73.355469 L 175.871094 13.730469 L 60.316406 80.292969 C 59 81.050781 57.738281 81.894531 56.53125 82.820312 C 55.328125 83.746094 54.1875 84.746094 53.113281 85.820312 C 52.039062 86.894531 51.039062 88.03125 50.113281 89.238281 C 49.1875 90.441406 48.34375 91.699219 47.585938 93.015625 C 46.824219 94.328125 46.152344 95.6875 45.570312 97.089844 C 44.988281 98.488281 44.5 99.921875 44.101562 101.386719 C 43.707031 102.855469 43.410156 104.339844 43.210938 105.84375 C 43.007812 107.347656 42.90625 108.859375 42.90625 110.375 L 42.90625 244.367188 C 42.90625 245.882812 43.007812 247.394531 43.210938 248.898438 C 43.410156 250.402344 43.707031 251.886719 44.101562 253.351562 C 44.5 254.820312 44.988281 256.253906 45.570312 257.652344 C 46.152344 259.054688 46.824219 260.414062 47.585938 261.726562 C 48.34375 263.042969 49.1875 264.300781 50.113281 265.503906 C 51.039062 266.710938 52.039062 267.847656 53.113281 268.921875 C 54.1875 269.996094 55.328125 270.996094 56.53125 271.921875 C 57.738281 272.847656 59 273.6875 60.316406 274.449219 L 132.152344 315.828125 L 132.152344 282.507812 L 74.777344 249.457031 C 74.328125 249.199219 73.921875 248.886719 73.558594 248.523438 C 73.191406 248.15625 72.878906 247.75 72.621094 247.304688 C 72.363281 246.855469 72.167969 246.382812 72.03125 245.886719 C 71.898438 245.386719 71.832031 244.878906 71.828125 244.363281 L 71.828125 110.371094 C 71.832031 109.855469 71.898438 109.347656 72.03125 108.851562 C 72.167969 108.351562 72.363281 107.878906 72.621094 107.433594 C 72.878906 106.984375 73.191406 106.578125 73.558594 106.214844 C 73.921875 105.847656 74.328125 105.535156 74.777344 105.277344 L 145.1875 64.722656 L 145.8125 290.375 L 145.605469 290.253906 L 145.605469 323.574219 L 176.628906 341.441406 C 177.945312 342.199219 179.308594 342.867188 180.714844 343.445312 C 182.121094 344.023438 183.558594 344.507812 185.027344 344.902344 C 186.496094 345.292969 187.988281 345.585938 189.496094 345.785156 C 191.003906 345.980469 192.515625 346.082031 194.039062 346.082031 C 195.558594 346.082031 197.074219 345.980469 198.582031 345.785156 C 200.089844 345.585938 201.578125 345.292969 203.050781 344.902344 C 204.519531 344.507812 205.957031 344.023438 207.363281 343.445312 C 208.769531 342.867188 210.128906 342.199219 211.449219 341.441406 L 252.199219 317.96875 L 233.953125 295.15625 L 196.988281 316.453125 C 196.074219 316.976562 195.089844 317.238281 194.039062 317.238281 C 192.984375 317.238281 192.003906 316.976562 191.089844 316.453125 L 176.566406 308.089844 L 176.566406 201.53125 L 230.472656 269.585938 L 230.613281 269.476562 L 263.976562 311.1875 L 327.757812 274.449219 C 329.074219 273.6875 330.335938 272.847656 331.542969 271.921875 C 332.746094 270.996094 333.886719 269.996094 334.960938 268.921875 C 336.035156 267.847656 337.035156 266.707031 337.960938 265.503906 C 338.886719 264.300781 339.730469 263.042969 340.492188 261.726562 C 341.25 260.414062 341.921875 259.054688 342.507812 257.652344 C 343.089844 256.25 343.578125 254.816406 343.972656 253.351562 C 344.367188 251.886719 344.664062 250.402344 344.867188 248.898438 C 345.066406 247.394531 345.167969 245.882812 345.171875 244.363281 L 345.171875 110.375 C 345.167969 108.855469 345.066406 107.34375 344.863281 105.839844 C 344.664062 104.335938 344.367188 102.851562 343.972656 101.386719 C 343.578125 99.921875 343.089844 98.488281 342.503906 97.085938 C 341.921875 95.6875 341.25 94.328125 340.492188 93.015625 C 339.730469 91.699219 338.886719 90.441406 337.960938 89.238281 C 337.035156 88.03125 336.035156 86.894531 334.960938 85.820312 C 333.886719 84.746094 332.746094 83.746094 331.542969 82.820312 C 330.335938 81.894531 329.078125 81.050781 327.761719 80.292969 Z M 327.761719 80.292969 " fill-opacity="1" fill-rule="nonzero"/></g><path stroke-linecap="butt" transform="matrix(0.000000000000000117, 1.914263, -1.901034, 0.000000000000000116, 138.761275, 5.820498)" fill="none" stroke-linejoin="miter" d="M -0.0000967045 -0.000233222 L 51.653671 -0.000233222 " stroke="#4f0a84" stroke-width="7" stroke-opacity="1" stroke-miterlimit="4"/><path stroke-linecap="butt" transform="matrix(-1.275155, 1.42772, -1.417853, -1.266342, 295.112152, 4.440937)" fill="none" stroke-linejoin="miter" d="M -0.000210079 -0.000607289 L 51.653385 -0.000000898558 " stroke="#4f0a84" stroke-width="7" stroke-opacity="1" stroke-miterlimit="4"/><path stroke-linecap="butt" transform="matrix(-1.131306, -1.544199, 1.533527, -1.123487, 313.443207, 318.303085)" fill="none" stroke-linejoin="miter" d="M -0.00011945 -0.00126245 L 51.653653 0.000451046 " stroke="#4f0a84" stroke-width="7" stroke-opacity="1" stroke-miterlimit="4"/><path stroke-linecap="butt" transform="matrix(1.88115, 0, 0, 1.901034, 11.699813, 175.347058)" fill="none" stroke-linejoin="miter" d="M -0.000316116 0.000314652 L 34.366128 0.000314652 " stroke="#4f0a84" stroke-width="7" stroke-opacity="1" stroke-miterlimit="4"/><path stroke-linecap="butt" transform="matrix(1.88115, 0, 0, 1.901034, 297.967456, 176.36624)" fill="none" stroke-linejoin="miter" d="M 0.000687806 0.000498614 L 34.367132 0.000498614 " stroke="#4f0a84" stroke-width="7" stroke-opacity="1" stroke-miterlimit="4"/><path stroke-linecap="butt" transform="matrix(0.000000000000000117, 1.914263, -1.901034, 0.000000000000000116, 183.573316, 276.817657)" fill="none" stroke-linejoin="miter" d="M -0.000653396 -0.000474639 L 51.653115 -0.000474639 " stroke="#4f0a84" stroke-width="7" stroke-opacity="1" stroke-miterlimit="4"/></svg>